PathFileType	4	(X/Y/Z)	C:\Users\Basilio\Documents\Thesis Gigler\squatting_fais\c3dfiles\076\SJ_pre1\markers_experimental.trc
DataRate	CameraRate	NumFrames	NumMarkers	Units	OrigDataRate	OrigDataStartFrame	OrigNumFrames
200.000000	200.000000	4	61	mm	200.000000	306	1226
Frame#	Time	FHD			LBHD			RBHD			C7			T10			CLAV			LSHO			LUUPA			LMUPA			LDUPA			LLEP			LMEP			LRAD			LUL			LRFIN			RSHO			RUPA1			RMUPA			RDUPA			RLEP			RMEP			RRAD			RUL			RUFIN			LASI			RASI			USACR			LSACR			RSACR			LTHI1			LTHI2			LTHI3			LTHI4			LLFC			LMFC			LTIB1			LTIB2			LTIB3			LTIB4			LLMAL			LMMAL			LHEE			LMT1			LMT2			LMT5			RTHI			RTHI2			RTHI3			RTHI4			RLFC			RMFC			RTIB1			RTIB2			RTIB3			RTIB4			RLMAL			RMMAL			RHEE			RMT1			RMT2			RMT5			
		X1	Y1	Z1	X2	Y2	Z2	X3	Y3	Z3	X4	Y4	Z4	X5	Y5	Z5	X6	Y6	Z6	X7	Y7	Z7	X8	Y8	Z8	X9	Y9	Z9	X10	Y10	Z10	X11	Y11	Z11	X12	Y12	Z12	X13	Y13	Z13	X14	Y14	Z14	X15	Y15	Z15	X16	Y16	Z16	X17	Y17	Z17	X18	Y18	Z18	X19	Y19	Z19	X20	Y20	Z20	X21	Y21	Z21	X22	Y22	Z22	X23	Y23	Z23	X24	Y24	Z24	X25	Y25	Z25	X26	Y26	Z26	X27	Y27	Z27	X28	Y28	Z28	X29	Y29	Z29	X30	Y30	Z30	X31	Y31	Z31	X32	Y32	Z32	X33	Y33	Z33	X34	Y34	Z34	X35	Y35	Z35	X36	Y36	Z36	X37	Y37	Z37	X38	Y38	Z38	X39	Y39	Z39	X40	Y40	Z40	X41	Y41	Z41	X42	Y42	Z42	X43	Y43	Z43	X44	Y44	Z44	X45	Y45	Z45	X46	Y46	Z46	X47	Y47	Z47	X48	Y48	Z48	X49	Y49	Z49	X50	Y50	Z50	X51	Y51	Z51	X52	Y52	Z52	X53	Y53	Z53	X54	Y54	Z54	X55	Y55	Z55	X56	Y56	Z56	X57	Y57	Z57	X58	Y58	Z58	X59	Y59	Z59	X60	Y60	Z60	X61	Y61	Z61	

307	1.53	43.6664047241211	1123.869384765625	-886.028991699219	-108.782585144043	1094.066040039063	-983.502136230469	-95.21246337890626	1093.477661132813	-831.6902465820315	-180.9007110595703	1037.793090820313	-910.0733642578127	-429.5035400390626	844.957702636719	-926.8200683593752	-124.3532867431641	891.8751220703127	-907.7398071289065	-134.3379058837891	950.8319091796877	-1076.245239257813	-230.2143249511719	853.6790771484377	-1218.831909179688	-253.8460083007813	815.317565917969	-1207.590698242188	-274.3301391601563	820.3920898437502	-1262.8251953125	-315.6153259277344	798.9226684570315	-1297.1494140625	-378.7244873046876	857.9537353515627	-1279.40869140625	-474.396209716797	713.7202758789064	-1133.419311523438	nan	nan	nan	-452.6440734863282	656.1865844726564	-1157.888916015625	-157.5912170410157	943.620300292969	-747.0487670898439	-272.2557678222657	879.0539550781252	-602.7208251953126	-282.8136901855469	829.3318481445315	-605.5388183593751	-319.3110046386719	846.4793701171877	-560.1074829101564	-370.3023071289063	796.4233398437502	-539.2817993164064	-432.6484375000001	847.5234375000002	-578.3822631835939	-487.6675109863282	703.5016479492189	-730.8273315429689	-436.4843139648439	689.4460449218751	-751.3157348632814	-468.5280761718751	645.5917968750001	-699.7456665039064	-430.3329467773439	703.4043579101564	-1092.481201171875	nan	nan	nan	-510.9459838867189	766.0902709960939	-925.8173828125002	-535.9162597656251	749.9851684570314	-954.8853149414065	-538.1562500000001	747.0272216796876	-897.3643798828127	-453.5483398437501	588.1268310546876	-1133.017822265625	-372.5469360351563	566.9571533203126	-1133.96533203125	-345.5833129882813	596.2217407226564	-1105.171997070313	-347.7711486816407	511.385467529297	-1142.6708984375	-229.7415008544922	409.236297607422	-1135.118041992188	-218.6536560058594	405.293670654297	-1026.265869140625	-239.3892517089844	274.2867126464844	-1057.22119140625	-276.3369140625001	227.6418151855469	-1123.343139648438	-254.832504272461	222.7158508300782	-1082.634521484375	-309.5902099609376	168.1325225830078	-1050.623168945313	-405.7201538085939	78.11172485351564	-1111.883056640625	-387.1158752441407	89.19692993164064	-1025.484619140625	-470.9221496582032	44.33904266357423	-1068.842895507813	-261.0353088378907	53.50136947631837	-1042.370971679688	-254.3968963623047	53.83337783813478	-1081.17919921875	-271.1287231445313	43.03229141235352	-1132.709228515625	-395.8843688964845	525.0354614257814	-705.3881835937501	-327.9059143066407	524.8005371093751	-694.7301025390626	-308.3626098632813	550.5040893554689	-709.0119628906251	-283.0455627441407	452.2233276367189	-693.4394531250001	-241.286361694336	417.8096313476564	-691.4862060546876	-217.9742431640626	413.5822753906251	-795.253356933594	-222.5760803222657	282.9673461914063	-711.4099121093751	-321.3560791015626	238.998519897461	-686.9307861328126	-281.2623901367188	219.2045440673829	-703.7268676757814	-290.5272521972657	175.9846954345703	-741.8903808593751	-404.8317871093751	78.23632812500001	-712.9682617187501	-382.4848022460938	89.13919067382814	-796.5294189453127	-466.0214843750001	51.04203033447267	-761.2116088867189	-257.8661193847657	51.99435043334962	-773.7275390625002	-255.849838256836	55.51972579956056	-728.2120971679689	-283.7015380859376	35.31051254272462	-675.2963867187501	
308	1.535	43.66873931884766	1123.749145507813	-885.937438964844	-108.7081832885742	1094.055541992188	-983.4509887695315	-95.22364807128908	1093.411865234375	-831.8098144531252	-180.9468994140625	1037.74560546875	-909.9727783203127	-429.5340881347657	844.8321533203127	-926.8582153320315	-124.2518920898438	891.7664184570315	-907.7187500000002	-133.7913208007813	950.5933837890627	-1075.949462890625	-230.2995605468751	853.616394042969	-1218.867065429688	-253.7062988281251	815.222839355469	-1207.6142578125	-274.3160705566407	820.2236938476565	-1262.735229492188	-315.3251342773438	798.8381347656252	-1297.186645507813	-378.6125793457032	857.8472900390627	-1279.445922851563	-474.3840637207032	713.6226806640626	-1133.498901367188	nan	nan	nan	-452.5974731445314	656.1538696289064	-1157.955444335938	-157.6379699707032	943.5596923828127	-747.0678710937501	-272.2572021484376	878.9468994140627	-602.7058105468751	-282.8118591308594	829.2481079101565	-605.5436401367189	-319.2914733886719	846.4014282226565	-560.1661376953126	-370.3850402832032	796.3005371093752	-539.3117675781251	-432.7169494628907	847.4399414062502	-578.4018554687501	-487.7024536132814	703.4248046875001	-730.8615722656251	-436.5164489746095	689.3652343750001	-751.4514770507814	-468.5906066894532	645.5050048828126	-699.7709350585939	-430.2369384765626	703.3642578125001	-1092.557250976563	nan	nan	nan	-510.9522705078126	766.0009765625001	-925.8625488281252	-535.8448486328126	749.9635009765626	-954.9055175781252	-538.1788940429689	746.9284057617189	-897.3992309570315	-453.5728149414064	588.0506591796876	-1133.074340820313	-372.5013732910157	566.8461303710939	-1133.967895507813	-345.5605163574219	596.1977539062501	-1105.245239257813	-348.4307250976563	511.5792236328126	-1143.013916015625	-229.7407226562501	409.187713623047	-1135.133056640625	-218.6344757080079	405.2394104003907	-1026.240844726563	-239.3262176513672	274.3193664550782	-1057.143188476563	-276.1598205566407	227.5673370361329	-1123.387451171875	-254.7308654785157	222.6801452636719	-1082.628662109375	-309.5779113769532	168.0981597900391	-1050.579956054688	-405.7290039062501	78.14546966552736	-1111.880981445313	-387.1295166015626	89.14827728271486	-1025.528198242188	-470.9076232910157	44.33563232421876	-1068.844970703125	-260.9977111816407	53.53950119018556	-1042.317993164063	-254.3604583740235	53.79757690429689	-1081.153198242188	-271.0906066894532	42.96692276000977	-1132.723876953125	-395.8854370117189	525.0049438476564	-705.4165039062501	-327.9230041503907	524.7719726562501	-694.7454833984376	-308.3658447265626	550.4836425781251	-709.0709838867189	-283.0035095214844	452.2388916015626	-693.4471435546876	-241.2404174804688	417.8073120117189	-691.5590209960939	-217.9054565429688	413.6382446289064	-795.3007812500002	-222.5886688232422	282.9298095703126	-711.5082397460939	-321.3513793945313	238.9504547119141	-686.9322509765626	-281.2345886230469	219.1021118164063	-703.7850952148439	-290.4974060058594	175.9596862792969	-741.8909912109376	-404.8309631347657	78.25103759765626	-712.9426269531251	-382.4205932617188	89.1741180419922	-796.5424804687502	-466.072723388672	51.08670806884767	-761.1936645507814	-257.8675842285157	51.97401046752931	-773.6990966796877	-255.8737182617188	55.49946975708009	-728.2428588867189	-283.6686706542969	35.32760620117188	-675.3304443359376	
309	1.54	43.64911651611329	1123.623413085938	-885.8948974609377	-108.7400207519532	1094.119384765625	-983.396911621094	-95.24246978759767	1093.309204101563	-831.7700195312502	-180.8839263916016	1037.640014648438	-910.0002441406252	-429.4907226562501	844.7302246093752	-926.876647949219	-124.3241119384766	891.6572875976565	-907.7652587890627	-133.703109741211	950.5366210937502	-1075.962280273438	-230.1939697265626	853.517517089844	-1218.838745117188	-253.6215820312501	815.1453247070315	-1207.682983398438	-274.3094787597657	820.144958496094	-1262.734985351563	-315.2706604003907	798.7418212890627	-1297.15673828125	-378.5546875000001	857.8670043945315	-1279.415649414063	-474.2536010742189	713.5540161132814	-1133.554565429688	nan	nan	nan	-452.5403747558595	656.0672607421876	-1158.072509765625	-157.6536865234375	943.4916992187502	-747.0297851562501	-272.2507019042969	878.9118652343752	-602.7746582031251	-282.8036193847657	829.125183105469	-605.5689086914064	-319.3364868164063	846.2937011718752	-560.2048339843751	-370.3468322753907	796.3093261718752	-539.3649291992189	-432.7720947265626	847.4475097656252	-578.4579467773439	-487.7178955078126	703.3322143554689	-730.8859863281251	-436.5522460937501	689.2955932617189	-751.5068359375001	-468.5386962890626	645.4039306640626	-699.8228759765626	-430.3367004394532	703.2778930664064	-1092.6376953125	nan	nan	nan	-510.9408264160157	765.8887329101564	-925.9306640625002	-535.8931884765626	749.8479614257814	-954.9353027343752	-538.1906738281251	746.8639526367189	-897.5052490234377	-453.3549194335939	587.9342041015626	-1133.034912109375	-372.3428649902344	566.8017578125001	-1133.932739257813	-345.4213256835938	596.1162719726564	-1105.167602539063	-347.5834350585938	511.2229614257814	-1142.609008789063	-229.6177062988282	409.1002502441407	-1135.008056640625	-218.5788574218751	405.2011108398439	-1026.16552734375	-239.2714080810547	274.2514953613282	-1057.137939453125	-276.0042114257813	227.4667968750001	-1123.370361328125	-254.6609497070313	222.6150512695313	-1082.631713867188	-309.5344543457032	168.0751647949219	-1050.51708984375	-405.6892395019532	78.15982055664064	-1111.897583007813	-387.1184387207032	89.13049316406251	-1025.49560546875	-470.9268493652345	44.31868743896485	-1068.8037109375	-260.9895629882813	53.51783370971681	-1042.331787109375	-254.3359680175782	53.80050277709962	-1081.15380859375	-271.0985412597657	43.04460525512696	-1132.734375	-395.9121398925782	524.9776000976564	-705.4508056640626	-327.9224853515626	524.7534790039064	-694.8396606445314	-308.3721008300782	550.4491577148439	-709.1627197265626	-282.9755554199219	452.227508544922	-693.5043334960939	-241.1813507080079	417.8070678710939	-691.5568237304689	-217.6087493896485	413.422576904297	-795.3535766601565	-222.530990600586	282.9934692382813	-711.4933471679689	-321.3146667480469	238.9415435791016	-687.0562133789064	-281.2182312011719	219.1988525390626	-703.7926025390626	-290.4532470703126	175.9392547607422	-741.8744506835939	-404.8191528320314	78.21920776367189	-712.9581909179689	-382.3962707519532	89.17691040039064	-796.5363769531252	-466.0438537597657	51.04498672485353	-761.2514648437501	-257.8560791015626	51.96035766601564	-773.729187011719	-255.8371124267579	55.51533889770509	-728.2684326171876	-283.6684265136719	35.34000778198243	-675.3231201171876	
310	1.545	43.67404556274415	1123.561767578125	-885.860046386719	-108.7262954711914	1093.942993164063	-983.4809570312502	-95.2706756591797	1093.262573242188	-831.7993774414065	-180.9149169921875	1037.573974609375	-910.0146484375002	-429.4697265625001	844.6309814453127	-926.9268798828127	-124.2242965698242	891.5156860351565	-907.6933593750002	-133.6909637451172	950.399108886719	-1075.94287109375	-230.1462554931641	853.422546386719	-1218.933349609375	-253.4376678466797	815.0796508789065	-1207.690063476563	-274.1018371582032	820.075622558594	-1262.7314453125	-315.2098693847657	798.5898437500002	-1297.224487304688	-378.4519042968751	857.695495605469	-1279.44287109375	-474.2615661621095	713.4661254882814	-1133.610107421875	nan	nan	nan	-452.392791748047	655.9848632812501	-1158.103515625	-157.6417236328125	943.4146728515627	-747.0917358398439	-272.2925415039063	878.812194824219	-602.8336181640626	-282.7620544433594	829.0438232421877	-605.5852050781251	-319.3504943847657	846.1851196289065	-560.2777099609376	-370.4064025878907	796.2129516601565	-539.4196777343751	-432.7546386718751	847.3658447265627	-578.5294189453126	-487.7013244628907	703.2247924804689	-730.9078979492189	-436.5435180664064	689.2081298828126	-751.5070800781251	-468.5996093750001	645.4050903320314	-699.7984619140626	-430.244110107422	703.2786254882814	-1092.702514648438	nan	nan	nan	-510.9308166503907	765.8254394531251	-925.976989746094	-535.7904663085939	749.7580566406251	-955.0198974609377	-538.1964111328126	746.7893676757814	-897.5230102539065	-453.3154907226564	587.8233642578126	-1133.102783203125	-372.3002624511719	566.7575683593751	-1133.956298828125	-345.4403991699219	596.0518188476564	-1105.171630859375	-347.5298461914063	511.1534118652345	-1142.59130859375	-229.5114288330079	409.0447692871095	-1134.97314453125	-218.5086364746094	405.1369018554689	-1026.1376953125	-239.2526092529297	274.2027893066407	-1057.052490234375	-275.8223266601563	227.366683959961	-1123.390625	-254.6406250000001	222.5874633789063	-1082.555297851563	-309.4602966308594	168.0486145019532	-1050.5322265625	-405.7082519531251	78.13436126708986	-1111.889404296875	-387.0897521972657	89.14589691162111	-1025.482788085938	-470.8697814941407	44.30806732177735	-1068.828002929688	-260.9841308593751	53.51170349121095	-1042.39453125	-254.3740386962891	53.82673645019533	-1081.14892578125	-271.1251525878907	43.02022933959962	-1132.733276367188	-395.9114685058595	524.9187011718751	-705.5264282226564	-327.8981933593751	524.7125244140626	-694.9013671875001	-308.3736572265626	550.4320678710939	-709.1655883789064	-282.9112548828126	452.2232666015626	-693.5454101562501	-241.1271362304688	417.7913208007814	-691.6358642578126	-217.6404266357422	413.5208435058595	-795.4074707031252	-222.4846801757813	282.9612121582032	-711.5108642578126	-321.2787780761719	238.9445190429688	-687.0803222656251	-281.2081298828126	219.2073364257813	-703.7922363281251	-290.5196533203126	175.9573059082032	-741.8947143554689	-404.8170166015626	78.22914886474611	-712.9795532226564	-382.4519653320313	89.15157318115236	-796.5390625000002	-466.000701904297	51.03993225097658	-761.2845458984376	-257.8568420410157	51.99676895141603	-773.7646484375002	-255.8131713867188	55.52284622192384	-728.2623291015626	-283.6842956542969	35.33238983154298	-675.3178100585939	
